<svg xmlns="http://www.w3.org/2000/svg" version="1.1" xmlns:xlink="http://www.w3.org/1999/xlink" xmlns:svgjs="http://svgjs.dev/svgjs" width="2000" height="484" viewBox="0 0 2000 484"><g transform="matrix(1,0,0,1,-1.2121212121212466,-0.1522876902656094)"><svg viewBox="0 0 396 96" data-background-color="#282828" preserveAspectRatio="xMidYMid meet" height="484" width="2000" xmlns="http://www.w3.org/2000/svg" xmlns:xlink="http://www.w3.org/1999/xlink"><g id="tight-bounds" transform="matrix(1,0,0,1,0.2400000000000091,0.030205822862598097)"><svg viewBox="0 0 395.52 95.93958835427482" height="95.93958835427482" width="395.52"><g><svg viewBox="0 0 395.52 95.93958835427482" height="95.93958835427482" width="395.52"><g><svg viewBox="0 0 519.0142557226388 125.89505977960735" height="95.93958835427482" width="395.52"><g transform="matrix(1,0,0,1,0,17.39938959327425)"><svg viewBox="0 0 395.52 91.09628059305885" height="91.09628059305885" width="395.52"><g id="textblocktransform"><svg viewBox="0 0 395.52 91.09628059305885" height="91.09628059305885" width="395.52" id="textblock"><g><svg viewBox="0 0 395.52 64.92907659269865" height="64.92907659269865" width="395.52"><g transform="matrix(1,0,0,1,0,0)"><svg width="395.52" viewBox="-1.3 -33.95 209.54000000000002 34.400000000000006" height="64.92907659269865" data-palette-color="#ffffff"><path d="M32.65-33.3Q34.5-33.3 35.52-32.5 36.55-31.7 36.55-30.3L36.55-30.3Q36.55-29.6 36.35-28.95L36.35-28.95 35.05-24.3Q34.7-22.95 34.02-22.43 33.35-21.9 32.1-21.9L32.1-21.9Q30.9-21.9 30.23-22.43 29.55-22.95 29.2-24.15L29.2-24.15 28.4-27Q28.15-27.9 27.8-28.2 27.45-28.5 26.45-28.5L26.45-28.5 21.2-28.5 18.7-19.6 20.9-19.6Q21.25-19.6 21.85-20.1L21.85-20.1 23.55-21.6Q24.3-22.25 24.85-22.55 25.4-22.85 26.2-22.85L26.2-22.85Q27.1-22.85 27.68-22.38 28.25-21.9 28.25-21.15L28.25-21.15Q28.25-20.95 28.15-20.55L28.15-20.55 26.1-13.6Q25.8-12.5 25.08-11.98 24.35-11.45 23.5-11.45L23.5-11.45Q22.1-11.45 21.4-12.9L21.4-12.9 20.55-14.65Q20.2-15.4 19.45-15.4L19.45-15.4 17.5-15.4 14.55-4.8 18.95-4.8Q19.9-4.8 20.63-5.18 21.35-5.55 22.2-6.5L22.2-6.5 25.2-9.8Q26-10.65 26.73-11.03 27.45-11.4 28.5-11.4L28.5-11.4Q29.6-11.4 30.3-10.9 31-10.4 31-9.4L31-9.4Q31-9 30.85-8.45L30.85-8.45 29.4-3.4Q28.85-1.5 27.8-0.75 26.75 0 24.75 0L24.75 0 0.9 0Q-0.15 0-0.73-0.35-1.3-0.7-1.3-1.3L-1.3-1.3Q-1.3-1.6-1.15-1.95L-1.15-1.95Q-0.95-2.5-0.5-2.8-0.05-3.1 0.05-3.15L0.05-3.15Q0.85-3.65 1.35-4.17 1.85-4.7 2.2-5.9L2.2-5.9 8.35-27.45Q8.55-28.1 8.55-28.65L8.55-28.65Q8.55-29.25 8.38-29.65 8.2-30.05 7.85-30.5L7.85-30.5Q7.4-31.15 7.4-31.55L7.4-31.55Q7.4-31.7 7.5-32.1L7.5-32.1Q7.7-32.75 8.4-33.02 9.1-33.3 10.45-33.3L10.45-33.3 32.65-33.3ZM39.8-17.6Q40.15-19.05 41.25-19.85 42.35-20.65 43.95-20.65L43.95-20.65 55.6-20.65Q58.35-20.65 58.35-18.5L58.35-18.5Q58.35-17.95 58.25-17.6L58.25-17.6Q57.3-14.55 54.05-14.55L54.05-14.55 42.4-14.55Q41.05-14.55 40.35-15.08 39.65-15.6 39.65-16.6L39.65-16.6Q39.65-17.1 39.8-17.6L39.8-17.6ZM79.4 0.3Q75.2 0.3 71.85-1.25 68.5-2.8 66.52-5.83 64.55-8.85 64.55-13.15L64.55-13.15Q64.55-16.15 65.6-19.65L65.6-19.65Q67.9-27.15 72.55-30.48 77.2-33.8 82.5-33.8L82.5-33.8Q85.35-33.8 87.55-32.95 89.75-32.1 91.6-30.5L91.6-30.5 92.95-31.55Q94.3-32.6 95.22-33 96.15-33.4 97.3-33.4L97.3-33.4Q98.55-33.4 99.3-32.85 100.05-32.3 100.05-31.25L100.05-31.25Q100.05-30.7 99.85-30.15L99.85-30.15 97.05-22.35Q96.6-21 95.97-20.45 95.35-19.9 94.1-19.9L94.1-19.9Q92.8-19.9 91.97-20.83 91.15-21.75 90.1-24L90.1-24Q88.9-26.35 88.15-27.1 87.4-27.85 85.95-27.85L85.95-27.85Q83.9-27.85 82-25.33 80.1-22.8 78.55-17.75L78.55-17.75Q77.25-13.5 77.25-10.65L77.25-10.65Q77.25-8.15 78.2-6.93 79.15-5.7 80.75-5.7L80.75-5.7Q83.1-5.7 84.62-6.75 86.15-7.8 87.75-9.6L87.75-9.6Q88.75-10.7 89.37-11.23 90-11.75 90.7-11.75L90.7-11.75Q91.6-11.75 92.6-10.85 93.6-9.95 93.55-9.05L93.55-9.05Q93.6-7.95 91.77-5.65 89.95-3.35 86.72-1.53 83.5 0.3 79.4 0.3L79.4 0.3ZM129.54-22.9L124.64-5.9Q124.44-5.25 124.44-4.6L124.44-4.6Q124.44-4.05 124.59-3.68 124.74-3.3 124.92-3.08 125.09-2.85 125.14-2.75L125.14-2.75Q125.64-2.25 125.64-1.75L125.64-1.75Q125.64-1.65 125.54-1.25L125.54-1.25Q125.34-0.55 124.67-0.28 123.99 0 122.59 0L122.59 0 110.74 0Q109.69 0 109.12-0.35 108.54-0.7 108.54-1.3L108.54-1.3Q108.54-1.6 108.69-1.95L108.69-1.95Q108.84-2.35 109.12-2.58 109.39-2.8 109.89-3.1L109.89-3.1Q110.69-3.55 111.19-4.1 111.69-4.65 112.04-5.9L112.04-5.9 113.34-10.2 105.54-10.2 104.19-7.35Q103.34-5.5 103.34-4.45L103.34-4.45Q103.34-3.85 103.54-3.48 103.74-3.1 104.14-2.7L104.14-2.7Q104.49-2.3 104.62-2.02 104.74-1.75 104.64-1.3L104.64-1.3Q104.44-0.55 103.82-0.28 103.19 0 101.84 0L101.84 0 94.39 0Q93.24 0 92.64-0.43 92.04-0.85 92.04-1.55L92.04-1.55Q92.04-2.35 92.62-2.83 93.19-3.3 94.34-3.85L94.34-3.85Q95.84-4.6 96.74-5.33 97.64-6.05 98.29-7.35L98.29-7.35 107.19-25.8Q109.24-30.1 112.02-32.02 114.79-33.95 119.34-33.95L119.34-33.95Q124.44-33.95 127.24-31.88 130.04-29.8 130.04-26.1L130.04-26.1Q130.04-24.55 129.54-22.9L129.54-22.9ZM107.84-15.2L114.84-15.2 117.49-24Q117.69-24.6 117.69-25.25L117.69-25.25Q117.69-26.2 117.17-26.68 116.64-27.15 115.69-27.15L115.69-27.15Q114.49-27.15 113.64-26.45 112.79-25.75 111.94-23.95L111.94-23.95 107.84-15.2ZM167.19-23.15Q166.39-20.25 164.19-18.63 161.99-17 158.64-16.6L158.64-16.6Q161.04-16.4 162.24-15.2 163.44-14 163.44-12.05L163.44-12.05Q163.44-11.3 163.19-10.2L163.19-10.2 162.64-7.75Q162.54-7.25 162.54-7.05L162.54-7.05Q162.54-6.4 162.84-6.08 163.14-5.75 163.69-5.75L163.69-5.75Q164.74-5.75 165.22-5.45 165.69-5.15 165.54-4.35L165.54-4.35Q165.34-3.2 164.34-2.1 163.34-1 161.52-0.28 159.69 0.45 157.09 0.45L157.09 0.45Q153.79 0.45 151.84-1.03 149.89-2.5 149.89-5.25L149.89-5.25Q149.89-6.3 150.19-7.5L150.19-7.5 150.99-10.7Q151.19-11.35 151.19-12.05L151.19-12.05Q151.19-13.2 150.42-13.7 149.64-14.2 147.94-14.2L147.94-14.2 146.04-14.2 143.74-5.9Q143.64-5.6 143.64-5.15L143.64-5.15Q143.64-4.45 143.99-3.95 144.34-3.45 144.94-2.9L144.94-2.9Q145.39-2.55 145.64-2.23 145.89-1.9 145.89-1.55L145.89-1.55Q145.89-0.7 145.09-0.35 144.29 0 142.74 0L142.74 0 130.19 0Q128.89 0 128.24-0.48 127.59-0.95 127.79-1.8L127.79-1.8Q127.89-2.25 128.17-2.53 128.44-2.8 128.99-3.15L128.99-3.15Q129.84-3.65 130.34-4.2 130.84-4.75 131.14-5.9L131.14-5.9 137.24-27.45Q137.44-28.1 137.44-28.7L137.44-28.7Q137.44-29.25 137.27-29.63 137.09-30 136.79-30.5L136.79-30.5Q136.34-31.15 136.34-31.55L136.34-31.55Q136.34-31.7 136.44-32.1L136.44-32.1Q136.64-32.75 137.31-33.02 137.99-33.3 139.39-33.3L139.39-33.3 156.14-33.3Q159.59-33.3 162.17-32.25 164.74-31.2 166.12-29.38 167.49-27.55 167.49-25.25L167.49-25.25Q167.49-24.2 167.19-23.15L167.19-23.15ZM154.39-23.65Q154.64-24.8 154.64-25.4L154.64-25.4Q154.64-28.05 151.74-28.05L151.74-28.05 149.64-28.05 147.44-19.2 149.54-19.2Q151.49-19.2 152.62-20.15 153.74-21.1 154.39-23.65L154.39-23.65ZM205.49-33.3Q208.24-33.3 208.24-31.05L208.24-31.05Q208.24-30.35 207.94-29.3L207.94-29.3 206.74-25.25Q206.19-23.4 205.39-22.65 204.59-21.9 203.09-21.9L203.09-21.9Q201.84-21.9 201.16-22.55 200.49-23.2 199.89-24.6L199.89-24.6 199.04-26.65Q198.64-27.6 198.19-27.95 197.74-28.3 196.79-28.3L196.79-28.3 195.64-28.3 189.29-5.95Q189.14-5.3 189.14-4.8L189.14-4.8Q189.14-4.2 189.31-3.8 189.49-3.4 189.84-2.95L189.84-2.95Q190.29-2.25 190.29-1.8L190.29-1.8Q190.29-1.7 190.19-1.3L190.19-1.3Q189.94-0.65 189.21-0.35 188.49-0.05 187.14-0.05L187.14-0.05 175.39-0.05Q174.34-0.05 173.76-0.4 173.19-0.75 173.19-1.4L173.19-1.4Q173.19-1.7 173.34-2L173.34-2Q173.54-2.45 173.81-2.68 174.09-2.9 174.64-3.25L174.64-3.25Q175.39-3.7 175.89-4.25 176.39-4.8 176.74-5.95L176.74-5.95 183.04-28.3 181.89-28.3Q180.79-28.3 180.09-27.95 179.39-27.6 178.59-26.65L178.59-26.65 176.94-24.6Q175.79-23.25 174.71-22.58 173.64-21.9 172.39-21.9L172.39-21.9Q171.24-21.9 170.59-22.5 169.94-23.1 169.94-24.15L169.94-24.15Q169.94-24.65 170.09-25.25L170.09-25.25 171.39-29.8Q171.79-31.2 172.29-31.93 172.79-32.65 173.71-32.98 174.64-33.3 176.34-33.3L176.34-33.3 205.49-33.3Z" opacity="1" transform="matrix(1,0,0,1,0,0)" fill="#ffffff" class="wordmark-text-0" data-fill-palette-color="primary" id="text-0"></path></svg></g></svg></g><g transform="matrix(1,0,0,1,163.310208,80.25727327839658)"><svg viewBox="0 0 232.209792 10.839007314662274" height="10.839007314662274" width="232.209792"><g transform="matrix(1,0,0,1,0,0)"><svg width="232.209792" viewBox="2.25 -33.25 728.32 34" height="10.839007314662274" data-palette-color="url(#d1023e70-8066-43b1-86d9-737ef6725878)"></svg></g></svg></g></svg></g></svg></g><g transform="matrix(1,0,0,1,410.8481966856979,0)"><svg viewBox="0 0 108.16605903694091 125.89505977960735" height="125.89505977960735" width="108.16605903694091"><g><svg xmlns="http://www.w3.org/2000/svg" xmlns:xlink="http://www.w3.org/1999/xlink" version="1.1" x="0" y="0" viewBox="14.449998423947612 39.89167440259789 82.14183769467473 95.60532813205418" enable-background="new 0 38.5 100 100" xml:space="preserve" height="125.89505977960735" width="108.16605903694091" class="icon-icon-0" data-fill-palette-color="accent" id="icon-0"><path d="M43.517 78.828c-1.988 0.263-3.477-0.03-4.424-0.87-1.125-0.998-1.128-2.497-1.129-2.527 0.007-0.396-0.308-0.724-0.703-0.731-0.006-0.002-0.013-0.001-0.019-0.001-0.389 0.001-0.708 0.312-0.716 0.704-0.002 0.087-0.029 2.163 1.594 3.617 1 0.896 2.372 1.345 4.094 1.341 0.471-0.002 0.969-0.036 1.491-0.106 0.394-0.053 0.671-0.413 0.62-0.807C44.272 79.053 43.908 78.776 43.517 78.828z" fill="#fbc02d" data-fill-palette-color="accent"></path><path d="M96.429 56.969c-1.904 0.794-6.537-1.955-7.091-2.15-2.177-0.673-6.88-16.421-20.685-14.812-11.587 1.351-17.307 6.494-18.846 8.112-0.947-0.123-1.914-0.186-2.894-0.184-7.723 0.02-14.752 4.087-18.631 10.7-0.657-0.449-1.377-0.681-2.127-0.679-2.818 0.007-5.017 3.297-5.007 7.491 0.009 3.867 1.895 6.958 4.397 7.409 1.588 10.579 10.679 18.438 21.473 18.412 8.442-0.021 15.987-4.859 19.547-12.429 0.529 0.274 1.092 0.415 1.667 0.414 2.732-0.007 4.864-3.13 4.854-7.108s-2.157-7.09-4.889-7.083c-0.015 0-0.03 0-0.046 0-1.141-5.381-4.212-9.934-8.411-12.989 4.163 1.619 8.973 3.782 13.222 6.444C83.148 64.894 98.331 56.176 96.429 56.969zM66.437 66.319l0.186 1.109 1.066-0.358c0.174-0.059 0.348-0.088 0.515-0.089 1.6-0.003 2.956 2.363 2.963 5.169 0.007 2.805-1.339 5.178-2.938 5.183-0.479 0-0.948-0.22-1.396-0.655l-1.023-0.998-0.536 1.325c-3.027 7.478-10.194 12.322-18.258 12.342-10.088 0.024-18.543-7.507-19.667-17.52l-0.104-0.928-0.931 0.078-0.126 0.014c-1.683 0.005-3.111-2.537-3.117-5.551-0.008-3.013 1.407-5.562 3.09-5.565 0.72-0.002 1.298 0.492 1.656 0.906l0.931 1.077 0.65-1.266c0.95-1.85 2.167-3.494 3.58-4.917 6.32 0.604 25.367 2.883 32.057 8.879-2.762-5.394-4.524-8.812-6.726-11.145C62.515 56.351 65.532 60.912 66.437 66.319z" fill="#fbc02d" data-fill-palette-color="accent"></path><path d="M46.649 65.146c4.627 12.857 13.795 2.877 15.007-2.028C58.754 66.188 46.649 65.146 46.649 65.146z" fill="#fbc02d" data-fill-palette-color="accent"></path><path d="M31.631 63.111c1.237 4.898 10.453 14.834 15.019 1.954C46.649 65.065 34.549 66.168 31.631 63.111z" fill="#fbc02d" data-fill-palette-color="accent"></path><path d="M35.95 105.15l-6.079 0.016-0.002-0.941h0.036c1.647-0.004 2.984-1.474 2.98-3.277-0.002-0.662-0.188-1.303-0.531-1.844 0.34-0.542 0.523-1.184 0.522-1.847-0.002-0.662-0.188-1.304-0.531-1.845 0.34-0.542 0.523-1.185 0.522-1.846-0.001-0.663-0.188-1.304-0.532-1.846 0.341-0.541 0.524-1.184 0.522-1.847-0.004-1.68-1.177-3.05-2.668-3.227 0.003-0.976-0.31-1.995-0.729-2.722-0.602-1.041-1.448-1.667-2.414-1.767-0.861-0.06-1.664 0.249-2.35 0.894-0.017 0.017-0.031 0.035-0.048 0.05-0.565 0.552-1.046 1.359-1.457 2.345-0.156 0.371-0.301 0.766-0.436 1.182l-0.51 0.002c-0.485 0-0.97 0.138-1.407 0.396-0.889 0.302-1.694 0.76-2.396 1.334-0.247 0.204-0.485 0.417-0.707 0.649-0.256 0.268-0.492 0.556-0.707 0.858-0.964 1.347-1.517 3.009-1.513 4.783l0.004 1.603c0.004 1.774 0.566 3.431 1.535 4.773 0.217 0.301 0.453 0.588 0.711 0.854 0.221 0.23 0.46 0.444 0.71 0.646 0.683 0.554 1.461 0.997 2.32 1.295-0.003 0.591 0 1.023 0.002 1.245l0.002 0.119-2.318 0.005-0.709 0.002-0.708 0.002-1.553 0.004c-0.587 0.001-1.062 0.478-1.061 1.065l0.066 27.82 0.001 0.354c0.001 0.125 0.026 0.243 0.067 0.355 0.147 0.411 0.538 0.706 1 0.705l2.97-0.007 17.465-0.042c0.587-0.002 1.062-0.479 1.061-1.066l-0.068-28.174C37.014 105.624 36.537 105.149 35.95 105.15zM25.885 84.905c0.087-0.111 0.176-0.218 0.268-0.304 0.328-0.309 0.565-0.334 0.708-0.324 0.225 0.022 0.521 0.303 0.759 0.713 0.31 0.537 0.454 1.155 0.456 1.627l-3.088 0.007c0.168-0.448 0.347-0.845 0.539-1.183C25.64 85.238 25.761 85.063 25.885 84.905zM24.31 88.945l5.079-0.012 0.113 0.051 0.022-0.052h0.343c0.362 0 0.669 0.433 0.67 0.947 0 0.365-0.162 0.705-0.416 0.865-0.339 0.214-0.542 0.582-0.541 0.982 0.001 0.402 0.205 0.769 0.545 0.982 0.254 0.157 0.419 0.496 0.42 0.862 0 0.364-0.162 0.703-0.417 0.863-0.338 0.215-0.541 0.582-0.54 0.983s0.205 0.769 0.545 0.981c0.254 0.159 0.418 0.496 0.419 0.862 0.001 0.364-0.161 0.704-0.416 0.864-0.339 0.215-0.541 0.582-0.54 0.983 0.001 0.4 0.205 0.768 0.544 0.981 0.254 0.158 0.419 0.496 0.42 0.861 0.001 0.515-0.304 0.951-0.666 0.951l-6.946 0.018C23.06 97.67 23.469 92.584 24.31 88.945zM22.925 104.242l4.818-0.012 0.002 0.94-4.817 0.011-0.002-0.137C22.923 104.788 22.925 104.511 22.925 104.242zM18.469 98.842c-0.394-0.787-0.625-1.67-0.627-2.594l-0.003-1.602c-0.002-0.934 0.219-1.831 0.614-2.627 0.661-1.332 1.812-2.378 3.233-2.828 0.106-0.034 0.207-0.082 0.3-0.145 0.05-0.033 0.097-0.058 0.144-0.073-0.886 4.009-1.188 8.96-1.287 12.344C19.814 100.775 18.994 99.896 18.469 98.842zM34.954 133.327l-16.402 0.039-0.708 0.002-0.709 0.002-0.489 0.001-0.063-26.048 0.49-0.001 0.458-0.001c0.079 0.034 0.168 0.07 0.25 0.104 0.222 0.094 0.458 0.188 0.71 0.281 3.206 1.2 8.752 2.312 15.398-0.425l1.003-0.001L34.954 133.327z" fill="#fbc02d" data-fill-palette-color="accent"></path><path d="M79.697 105.12l-5.288 0.013 0.001-0.118c0.002-0.211 0.002-0.615-0.002-1.158 3.146-1.104 5.247-4.136 5.239-7.594l-0.005-1.602c-0.008-3.488-2.158-6.534-5.357-7.6-0.438-0.256-0.924-0.391-1.408-0.39l-0.48 0.001c-0.52-1.592-1.168-2.892-1.987-3.654-0.689-0.644-1.5-0.948-2.387-0.88-0.934 0.101-1.777 0.73-2.374 1.775-0.429 0.749-0.746 1.812-0.719 2.813-1.49 0.186-2.653 1.561-2.649 3.239 0.001 0.663 0.188 1.305 0.531 1.845-0.341 0.542-0.524 1.185-0.522 1.847s0.188 1.304 0.531 1.844c-0.341 0.543-0.523 1.185-0.522 1.848 0.002 0.663 0.188 1.304 0.53 1.844-0.34 0.542-0.523 1.184-0.521 1.847 0.004 1.803 1.349 3.267 2.996 3.263h0.035l0.002 0.852-6.078 0.015c-0.587 0.002-1.062 0.479-1.061 1.066l0.068 28.173c0.001 0.588 0.479 1.062 1.065 1.061l20.436-0.049c0.587-0.002 1.062-0.479 1.061-1.065l-0.067-28.174C80.762 105.594 80.284 105.119 79.697 105.12zM73.149 89.087c0.093 0.062 0.193 0.11 0.299 0.144 2.276 0.707 3.868 2.942 3.874 5.437l0.004 1.602c0.005 2.158-1.182 4.124-2.972 5.08-0.111-3.355-0.431-8.305-1.324-12.323C73.068 89.04 73.107 89.06 73.149 89.087zM67.494 84.969c0.235-0.411 0.531-0.692 0.723-0.714 0.173-0.017 0.413 0.013 0.741 0.318 0.457 0.426 0.858 1.157 1.211 2.105l-3.122 0.008C67.027 86.207 67.168 85.54 67.494 84.969zM65.298 101.982c-0.362 0.001-0.669-0.434-0.671-0.948-0.001-0.365 0.162-0.703 0.416-0.864 0.339-0.214 0.541-0.582 0.54-0.983-0.001-0.4-0.204-0.768-0.546-0.98-0.254-0.159-0.418-0.497-0.419-0.862s0.162-0.704 0.415-0.864c0.339-0.214 0.541-0.581 0.54-0.984-0.001-0.4-0.204-0.768-0.545-0.981-0.254-0.158-0.418-0.496-0.419-0.86-0.001-0.365 0.161-0.705 0.415-0.864 0.34-0.215 0.541-0.583 0.541-0.984-0.001-0.401-0.206-0.768-0.546-0.981-0.254-0.158-0.418-0.497-0.419-0.862-0.002-0.514 0.304-0.949 0.666-0.95l5.58-0.014c0.85 3.652 1.276 8.735 1.399 12.969L65.298 101.982zM67.464 104.298l4.821-0.012c0.001 0.243 0 0.482-0.001 0.715l-0.001 0.137-4.816 0.012L67.464 104.298zM78.702 133.297l-18.31 0.044-0.062-26.048 1.003-0.002c7.376 2.994 13.389 1.276 16.357-0.04l0.949-0.002L78.702 133.297z" fill="#fbc02d" data-fill-palette-color="accent"></path></svg></g></svg></g></svg></g></svg></g><defs></defs><mask id="7a3790c2-26a5-4076-b1a7-ed8f7ceab068"><g id="SvgjsG1005"><svg viewBox="0 0 395.52 95.93958835427482" height="95.93958835427482" width="395.52"><g><svg viewBox="0 0 395.52 95.93958835427482" height="95.93958835427482" width="395.52"><g><svg viewBox="0 0 519.0142557226388 125.89505977960735" height="95.93958835427482" width="395.52"><g transform="matrix(1,0,0,1,0,17.39938959327425)"><svg viewBox="0 0 395.52 91.09628059305885" height="91.09628059305885" width="395.52"><g id="SvgjsG1004"><svg viewBox="0 0 395.52 91.09628059305885" height="91.09628059305885" width="395.52" id="SvgjsSvg1003"><g><svg viewBox="0 0 395.52 64.92907659269865" height="64.92907659269865" width="395.52"><g transform="matrix(1,0,0,1,0,0)"><svg width="395.52" viewBox="-1.3 -33.95 209.54000000000002 34.400000000000006" height="64.92907659269865" data-palette-color="#ffffff"></svg></g></svg></g><g transform="matrix(1,0,0,1,163.310208,80.25727327839658)"><svg viewBox="0 0 232.209792 10.839007314662274" height="10.839007314662274" width="232.209792"><g transform="matrix(1,0,0,1,0,0)"><svg width="232.209792" viewBox="2.25 -33.25 728.32 34" height="10.839007314662274" data-palette-color="url(#d1023e70-8066-43b1-86d9-737ef6725878)"><path d="M17.05-25.95L12 0 7.1 0 2.25-32.5 5.75-32.5 9.85-5.05 15.2-32.5 18.95-32.5 24.3-5.05 28.4-32.5 31.9-32.5 27.05 0 22.15 0 17.05-25.95ZM51.4-6.25L51.4-6.25 51.4-9 54.9-9 54.9-6.25Q54.9-2.9 52.85-1.07 50.8 0.75 46.7 0.75 42.6 0.75 40.5-1.07 38.4-2.9 38.4-6.25L38.4-6.25 38.4-26.25Q38.4-29.6 40.45-31.43 42.5-33.25 46.6-33.25 50.7-33.25 52.8-31.43 54.9-29.6 54.9-26.25L54.9-26.25 54.9-15.25 41.9-15.25 41.9-6.25Q41.9-2.25 46.65-2.25 51.4-2.25 51.4-6.25ZM41.9-26.25L41.9-26.25 41.9-18.25 51.4-18.25 51.4-26.25Q51.4-30.25 46.65-30.25 41.9-30.25 41.9-26.25ZM76.8 0L64.15 0 64.15-32.5 67.65-32.5 67.65-3 76.8-3 76.8 0ZM95.04-6.25L95.04-6.25 95.04-9 98.54-9 98.54-6.25Q98.54-2.9 96.49-1.07 94.44 0.75 90.34 0.75 86.24 0.75 84.14-1.07 82.04-2.9 82.04-6.25L82.04-6.25 82.04-26.25Q82.04-29.6 84.09-31.43 86.14-33.25 90.24-33.25 94.34-33.25 96.44-31.43 98.54-29.6 98.54-26.25L98.54-26.25 98.54-21.5 95.04-21.5 95.04-26.25Q95.04-30.25 90.29-30.25 85.54-30.25 85.54-26.25L85.54-26.25 85.54-6.25Q85.54-2.25 90.29-2.25 95.04-2.25 95.04-6.25ZM123.54-26.25L123.54-26.25 123.54-6.25Q123.54-2.9 121.42-1.07 119.29 0.75 115.07 0.75 110.84 0.75 108.69-1.07 106.54-2.9 106.54-6.25L106.54-6.25 106.54-26.25Q106.54-29.6 108.67-31.43 110.79-33.25 115.02-33.25 119.24-33.25 121.39-31.43 123.54-29.6 123.54-26.25ZM120.04-6.25L120.04-6.25 120.04-26.25Q120.04-30.25 115.04-30.25 110.04-30.25 110.04-26.25L110.04-26.25 110.04-6.25Q110.04-2.25 115.04-2.25 120.04-2.25 120.04-6.25ZM136.29-25.4L136.29 0 132.79 0 132.79-32.5 134.29-32.5 135.54-29.3Q136.59-31.1 138.29-32.18 139.99-33.25 141.99-33.25L141.99-33.25Q147.04-33.25 148.44-29.6L148.44-29.6Q150.84-33.25 154.74-33.25L154.74-33.25Q161.79-33.25 161.79-26.25L161.79-26.25 161.79 0 158.29 0 158.29-26.25Q158.29-30.25 154.69-30.25L154.69-30.25Q152.59-30.25 150.81-28.55 149.04-26.85 149.04-25.25L149.04-25.25 149.04 0 145.54 0 145.54-26.25Q145.54-30.25 141.94-30.25L141.94-30.25Q139.84-30.25 138.06-28.63 136.29-27 136.29-25.4L136.29-25.4ZM183.54-6.25L183.54-6.25 183.54-9 187.04-9 187.04-6.25Q187.04-2.9 184.99-1.07 182.94 0.75 178.84 0.75 174.74 0.75 172.64-1.07 170.54-2.9 170.54-6.25L170.54-6.25 170.54-26.25Q170.54-29.6 172.59-31.43 174.64-33.25 178.74-33.25 182.84-33.25 184.94-31.43 187.04-29.6 187.04-26.25L187.04-26.25 187.04-15.25 174.04-15.25 174.04-6.25Q174.04-2.25 178.79-2.25 183.54-2.25 183.54-6.25ZM174.04-26.25L174.04-26.25 174.04-18.25 183.54-18.25 183.54-26.25Q183.54-30.25 178.79-30.25 174.04-30.25 174.04-26.25ZM207.03-5.75L207.03-32.5 218.03-32.5 218.03-29.5 210.53-29.5 210.53-5.55Q210.53-4.15 211.26-3.2 211.98-2.25 213.31-2.25 214.63-2.25 215.33-3.18 216.03-4.1 216.03-5.55L216.03-5.55 216.03-11.5 219.53-11.5 219.53-5.75Q219.53-2.6 217.86-0.93 216.18 0.75 213.33 0.75 210.48 0.75 208.76-0.93 207.03-2.6 207.03-5.75L207.03-5.75ZM242.78-26.25L242.78-26.25 242.78-6.25Q242.78-2.9 240.65-1.07 238.53 0.75 234.3 0.75 230.08 0.75 227.93-1.07 225.78-2.9 225.78-6.25L225.78-6.25 225.78-26.25Q225.78-29.6 227.9-31.43 230.03-33.25 234.25-33.25 238.48-33.25 240.63-31.43 242.78-29.6 242.78-26.25ZM239.28-6.25L239.28-6.25 239.28-26.25Q239.28-30.25 234.28-30.25 229.28-30.25 229.28-26.25L229.28-26.25 229.28-6.25Q229.28-2.25 234.28-2.25 239.28-2.25 239.28-6.25ZM262.77-5.75L262.77-32.5 273.77-32.5 273.77-29.5 266.27-29.5 266.27-5.55Q266.27-4.15 267-3.2 267.72-2.25 269.05-2.25 270.37-2.25 271.07-3.18 271.77-4.1 271.77-5.55L271.77-5.55 271.77-11.5 275.27-11.5 275.27-5.75Q275.27-2.6 273.6-0.93 271.92 0.75 269.07 0.75 266.22 0.75 264.5-0.93 262.77-2.6 262.77-5.75L262.77-5.75ZM285.77-15L285.77 0 282.27 0 282.27-32.5 285.77-32.5 285.77-18 295.62-18 295.62-32.5 299.12-32.5 299.12 0 295.62 0 295.62-15 285.77-15ZM321.37-6.25L321.37-6.25 321.37-9 324.87-9 324.87-6.25Q324.87-2.9 322.82-1.07 320.77 0.75 316.67 0.75 312.57 0.75 310.47-1.07 308.37-2.9 308.37-6.25L308.37-6.25 308.37-26.25Q308.37-29.6 310.42-31.43 312.47-33.25 316.57-33.25 320.67-33.25 322.77-31.43 324.87-29.6 324.87-26.25L324.87-26.25 324.87-15.25 311.87-15.25 311.87-6.25Q311.87-2.25 316.62-2.25 321.37-2.25 321.37-6.25ZM311.87-26.25L311.87-26.25 311.87-18.25 321.37-18.25 321.37-26.25Q321.37-30.25 316.62-30.25 311.87-30.25 311.87-26.25ZM349.11-15L349.11 0 345.61 0 345.61-32.5 359.36-32.5 359.36-29.5 349.11-29.5 349.11-18 357.36-18 357.36-15 349.11-15ZM365.86-6.25L365.86-6.25 365.86-32.5 369.36-32.5 369.36-6.25Q369.36-4.35 370.19-3.3 371.01-2.25 373.21-2.25 375.41-2.25 377.26-3.95 379.11-5.65 379.11-7.25L379.11-7.25 379.11-32.5 382.61-32.5 382.61 0 381.11 0 379.81-3.2Q378.71-1.4 376.99-0.33 375.26 0.75 373.21 0.75L373.21 0.75Q365.86 0.75 365.86-6.25ZM391.86-5.75L391.86-32.5 402.86-32.5 402.86-29.5 395.36-29.5 395.36-5.55Q395.36-4.15 396.08-3.2 396.81-2.25 398.13-2.25 399.46-2.25 400.16-3.18 400.86-4.1 400.86-5.55L400.86-5.55 400.86-11.5 404.36-11.5 404.36-5.75Q404.36-2.6 402.68-0.93 401.01 0.75 398.16 0.75 395.31 0.75 393.58-0.93 391.86-2.6 391.86-5.75L391.86-5.75ZM410.86-6.25L410.86-6.25 410.86-32.5 414.36-32.5 414.36-6.25Q414.36-4.35 415.18-3.3 416.01-2.25 418.21-2.25 420.41-2.25 422.26-3.95 424.11-5.65 424.11-7.25L424.11-7.25 424.11-32.5 427.61-32.5 427.61 0 426.11 0 424.81-3.2Q423.71-1.4 421.98-0.33 420.26 0.75 418.21 0.75L418.21 0.75Q410.86 0.75 410.86-6.25ZM441.1-22.85L441.1 0 437.6 0 437.6-32.5 439.1-32.5 440.55-28.8Q442.15-33.25 445.65-33.25L445.65-33.25Q451.6-33.25 451.6-26.75L451.6-26.75 451.6-23.5 448.25-23.5 448.25-26.95Q448.25-30.25 445.5-30.25L445.5-30.25Q443.85-30.25 442.48-28.35 441.1-26.45 441.1-22.85L441.1-22.85ZM469.85-6.25L469.85-6.25 469.85-9 473.35-9 473.35-6.25Q473.35-2.9 471.3-1.07 469.25 0.75 465.15 0.75 461.05 0.75 458.95-1.07 456.85-2.9 456.85-6.25L456.85-6.25 456.85-26.25Q456.85-29.6 458.9-31.43 460.95-33.25 465.05-33.25 469.15-33.25 471.25-31.43 473.35-29.6 473.35-26.25L473.35-26.25 473.35-15.25 460.35-15.25 460.35-6.25Q460.35-2.25 465.1-2.25 469.85-2.25 469.85-6.25ZM460.35-26.25L460.35-26.25 460.35-18.25 469.85-18.25 469.85-26.25Q469.85-30.25 465.1-30.25 460.35-30.25 460.35-26.25ZM510.35-26.25L510.35-26.25 510.35-6.25Q510.35-2.9 508.22-1.07 506.1 0.75 501.87 0.75 497.65 0.75 495.5-1.07 493.35-2.9 493.35-6.25L493.35-6.25 493.35-26.25Q493.35-29.6 495.47-31.43 497.6-33.25 501.82-33.25 506.05-33.25 508.2-31.43 510.35-29.6 510.35-26.25ZM506.85-6.25L506.85-6.25 506.85-26.25Q506.85-30.25 501.85-30.25 496.85-30.25 496.85-26.25L496.85-26.25 496.85-6.25Q496.85-2.25 501.85-2.25 506.85-2.25 506.85-6.25ZM523.09-15L523.09 0 519.59 0 519.59-32.5 533.34-32.5 533.34-29.5 523.09-29.5 523.09-18 531.34-18 531.34-15 523.09-15ZM567.74-6.25L567.74-6.25Q567.74 0.75 559.29 0.75 550.84 0.75 550.84-6.25L550.84-6.25 550.84-10.5 554.34-10.5 554.34-6.05Q554.34-4.25 555.59-3.25 556.84-2.25 559.29-2.25 561.74-2.25 562.99-3.25 564.24-4.25 564.24-5.98 564.24-7.7 563.86-8.72 563.49-9.75 562.34-10.9L562.34-10.9 553.54-19.5Q551.99-21.05 551.41-22.53 550.84-24 550.84-26.25L550.84-26.25Q550.84-29.6 552.91-31.43 554.99-33.25 559.19-33.25L559.19-33.25Q567.24-33.25 567.24-26.25L567.24-26.25 567.24-22 563.74-22 563.74-26.45Q563.74-28.25 562.56-29.25 561.39-30.25 559.04-30.25 556.69-30.25 555.51-29.25 554.34-28.25 554.34-26.5 554.34-24.75 554.69-23.75 555.04-22.75 556.24-21.65L556.24-21.65 565.19-13.05Q566.64-11.45 567.19-9.98 567.74-8.5 567.74-6.25ZM580.23-15L580.23 0 576.73 0 576.73-32.5 580.23-32.5 580.23-18 590.08-18 590.08-32.5 593.58-32.5 593.58 0 590.08 0 590.08-15 580.23-15ZM619.83-26.25L619.83-26.25 619.83-6.25Q619.83-2.9 617.71-1.07 615.58 0.75 611.36 0.75 607.13 0.75 604.98-1.07 602.83-2.9 602.83-6.25L602.83-6.25 602.83-26.25Q602.83-29.6 604.96-31.43 607.08-33.25 611.31-33.25 615.53-33.25 617.68-31.43 619.83-29.6 619.83-26.25ZM616.33-6.25L616.33-6.25 616.33-26.25Q616.33-30.25 611.33-30.25 606.33-30.25 606.33-26.25L606.33-26.25 606.33-6.25Q606.33-2.25 611.33-2.25 616.33-2.25 616.33-6.25ZM632.08-10L632.08 0 628.58 0 628.58-32.5 636.13-32.5Q640.03-32.5 642.05-30.65 644.08-28.8 644.08-25.5L644.08-25.5 644.08-17Q644.08-13.65 642.08-11.83 640.08-10 636.13-10L636.13-10 632.08-10ZM640.58-17L640.58-17 640.58-25.5Q640.58-27.4 639.43-28.45 638.28-29.5 636.13-29.5L636.13-29.5 632.08-29.5 632.08-13 636.13-13Q640.58-13 640.58-17ZM655.08-10L655.08 0 651.58 0 651.58-32.5 659.13-32.5Q663.03-32.5 665.05-30.65 667.08-28.8 667.08-25.5L667.08-25.5 667.08-17Q667.08-13.65 665.08-11.83 663.08-10 659.13-10L659.13-10 655.08-10ZM663.58-17L663.58-17 663.58-25.5Q663.58-27.4 662.43-28.45 661.28-29.5 659.13-29.5L659.13-29.5 655.08-29.5 655.08-13 659.13-13Q663.58-13 663.58-17ZM678.57-32.5L678.57 0 675.07 0 675.07-32.5 678.57-32.5ZM692.07-25.25L692.07 0 688.57 0 688.57-32.5 690.07-32.5 691.32-29.25Q693.72-33.25 697.97-33.25L697.97-33.25Q705.32-33.25 705.32-26.25L705.32-26.25 705.32 0 701.82 0 701.82-26.25Q701.82-28.15 701-29.2 700.17-30.25 697.97-30.25 695.77-30.25 693.92-28.55 692.07-26.85 692.07-25.25L692.07-25.25ZM727.07-13.5L721.47-13.5 721.47-16.5 730.57-16.5 730.57-6.25Q730.57-2.9 728.52-1.07 726.47 0.75 722.37 0.75 718.27 0.75 716.17-1.07 714.07-2.9 714.07-6.25L714.07-6.25 714.07-26.25Q714.07-29.6 716.12-31.43 718.17-33.25 722.27-33.25 726.37-33.25 728.47-31.43 730.57-29.6 730.57-26.25L730.57-26.25 730.57-23.5 727.07-23.5 727.07-26.25Q727.07-30.25 722.32-30.25 717.57-30.25 717.57-26.25L717.57-26.25 717.57-6.25Q717.57-2.25 722.32-2.25 727.07-2.25 727.07-6.25L727.07-6.25 727.07-13.5Z" opacity="1" transform="matrix(1,0,0,1,0,0)" fill="white" class="slogan-text-1" id="SvgjsPath1001"></path></svg></g></svg></g></svg></g></svg></g><g transform="matrix(1,0,0,1,410.8481966856979,0)"><svg viewBox="0 0 108.16605903694091 125.89505977960735" height="125.89505977960735" width="108.16605903694091"><g><svg xmlns="http://www.w3.org/2000/svg" xmlns:xlink="http://www.w3.org/1999/xlink" version="1.1" x="0" y="0" viewBox="14.449998423947612 39.89167440259789 82.14183769467473 95.60532813205418" enable-background="new 0 38.5 100 100" xml:space="preserve" height="125.89505977960735" width="108.16605903694091" class="icon-icon-0" data-fill-palette-color="accent" id="SvgjsSvg1000"></svg></g></svg></g></svg></g></svg></g><defs><mask></mask></defs></svg></g></mask><linearGradient x1="0.054" x2="0.941" y1="0.5" y2="0.5" id="d1023e70-8066-43b1-86d9-737ef6725878"><stop stop-color="#8c8c8c" offset="0"></stop><stop stop-color="#e3e4e5" offset="0.498"></stop><stop stop-color="#8c8c8c" offset="1"></stop></linearGradient><rect width="395.52" height="95.93958835427482" fill="url(#d1023e70-8066-43b1-86d9-737ef6725878)" mask="url(#7a3790c2-26a5-4076-b1a7-ed8f7ceab068)" data-fill-palette-color="secondary"></rect></svg><rect width="395.52" height="95.93958835427482" fill="none" stroke="none" visibility="hidden"></rect></g></svg></g></svg>